<?xml version="1.0" encoding="utf-8"?>
<!-- Generator: Adobe Illustrator 18.1.1, SVG Export Plug-In . SVG Version: 6.00 Build 0)  -->
<!DOCTYPE svg PUBLIC "-//W3C//DTD SVG 1.1//EN" "http://www.w3.org/Graphics/SVG/1.1/DTD/svg11.dtd">
<svg version="1.1" id="Layer_1" xmlns="http://www.w3.org/2000/svg" xmlns:xlink="http://www.w3.org/1999/xlink" x="0px" y="0px"
	 viewBox="0 0 465 56.7" enable-background="new 0 0 465 56.7" xml:space="preserve">
<path fill="#FFFFFF" d="M461.1,10c-2.1,0-3.9,1.7-3.9,3.9c0,2.1,1.7,3.9,3.9,3.9c2.1,0,3.9-1.7,3.9-3.9C465,11.7,463.3,10,461.1,10z
	 M461.1,17.1c-1.8,0-3.2-1.4-3.2-3.2c0-1.8,1.4-3.2,3.2-3.2c1.8,0,3.2,1.4,3.2,3.2C464.3,15.6,462.9,17.1,461.1,17.1z"/>
<path fill="#FFFFFF" d="M461.7,14.2c0.6-0.2,0.9-0.6,0.9-1.1c0-0.7-0.4-1.2-1.4-1.2h-1.5v4h0.6v-1.6h0.8c0,0.1,0,0.2,0.1,0.2
	l0.9,1.4h0.8L461.7,14.2z M460.3,13.7v-1.2h0.9c0.5,0,0.8,0.2,0.8,0.6c0,0.4-0.2,0.6-0.8,0.6H460.3z"/>
<path fill="#FFFFFF" d="M205.5,47.5l-8.7-14h-6.3v14h-3.6V14.3h10.4c8.4,0,11.8,4,11.8,9.7c0,4.8-2.5,8.2-8.4,9.4l9.3,14.2H205.5z
	 M197.3,17.5h-6.9v12.8h6.8c5.1,0,8.1-1.5,8.1-6.3C205.4,19.1,202.3,17.5,197.3,17.5z"/>
<path fill="#FFFFFF" d="M224.6,47.5H221l8.5-13.9l-11.6-19.4h4l9.1,15.2c0.3,0.6,0.5,1.2,0.6,1.5c0.1-0.4,0.3-1,0.6-1.6l9.1-15.1
	h3.9L224.6,47.5z"/>
<path fill="#FFFFFF" d="M310.4,47.5l-20-27.6c0.1,0.5,0.3,1.1,0.3,2v25.6h-3.6V14.3h3.4l19.9,27.5c-0.2-0.8-0.3-1.1-0.3-1.8V14.3
	h3.6v33.2H310.4z"/>
<path fill="#FFFFFF" d="M371.3,47.5V14.3h3.6v33.2H371.3z"/>
<path fill="#FFFFFF" d="M412.7,47.5l-20-27.6c0.1,0.5,0.3,1.1,0.3,2v25.6h-3.6V14.3h3.4l19.9,27.5c-0.2-0.8-0.3-1.1-0.3-1.8V14.3
	h3.6v33.2H412.7z"/>
<g>
	<rect x="252.1" y="28.3" fill="#FFFFFF" width="22.7" height="3.3"/>
	<polygon fill="#FFFFFF" points="255.5,17.5 274.9,17.5 274.9,14.3 257.5,14.3 	"/>
	<rect x="252.1" y="44.3" fill="#FFFFFF" width="22.7" height="3.2"/>
</g>
<g>
	<rect x="430.3" y="28.3" fill="#FFFFFF" width="22.7" height="3.3"/>
	<rect x="430.3" y="14.3" fill="#FFFFFF" width="22.7" height="3.2"/>
	<rect x="430.3" y="44.3" fill="#FFFFFF" width="22.7" height="3.2"/>
</g>
<path fill="#FFFFFF" d="M13.2,30.8L13.2,30.8c0-0.7,0-0.5,0-0.5c0-2.7,16.5-23.7,44.2-30.2C22.8,2.6,0,25.3,0,30.4c0,0,0-0.3,0,0.4
	h0c0.5,5,17,23,53.7,25.9C22,48.2,13.8,33.8,13.2,30.8z"/>
<path fill="#FFFFFF" d="M127.9,30.7C127.7,24.4,105.7,2,68,0c31.4,6.2,46.5,27.9,46.5,30.7c0,0.3-0.1,0.7-0.2,0.8
	c-0.4,0.7-1.3,1.9-2.8,3.3c-13.2,10.9-27.2,11.9-31,12c4.1-4.3,6.8-10.4,6.8-16.7c0-12.9-10.5-23.5-23.5-23.5
	c-12.9,0-23.4,10.5-23.4,23.4c0,27.5,35.3,30.1,57.2,22.9c18-5.9,30-18.7,30.3-21.9h0C127.9,30.5,127.9,30.7,127.9,30.7z M63.8,43.4
	c-7.3,0-13.3-6-13.3-13.3c0-7.3,6-13.3,13.3-13.3c7.3,0,13.3,6,13.3,13.3C77.1,37.4,71.1,43.4,63.8,43.4z"/>
<path fill="#FFFFFF" d="M346.5,29l-2.3,3.7h11.2c-0.9,6.4-6.4,11.3-13,11.3c-7.2,0-13.1-5.9-13.1-13.1c0-7.2,5.9-13.1,13.1-13.1
	c3.3,0,6.4,1.2,8.9,3.4l2-3.1c-3-2.6-6.8-4-10.8-4c-9.3,0-16.8,7.5-16.8,16.8c0,9.3,7.5,16.8,16.8,16.8c9.3,0,16.8-7.5,16.8-16.8V29
	H346.5z"/>
<path fill="#FFFFFF" d="M165.1,44c-7.2,0-13.1-5.9-13.1-13.1c0-7.2,5.9-13.1,13.1-13.1c4,0,7.7,1.8,10.2,4.9l2.1-3.2
	c-3.2-3.4-7.6-5.3-12.3-5.3c-9.3,0-16.8,7.5-16.8,16.8c0,9.3,7.5,16.8,16.8,16.8c4.9,0,9.6-2.2,12.8-5.9l-2.8-2.4
	C172.6,42.3,168.9,44,165.1,44z"/>
</svg>
